<svg width="18" height="21" viewBox="0 0 18 21" fill="none" xmlns="http://www.w3.org/2000/svg">
<g clip-path="url(#clip0_54_143)">
<path d="M9.28292 5.57205C6.8068 5.57205 4.80955 7.59926 4.80955 10.1125C4.80955 12.6258 6.8068 14.653 9.28292 14.653C11.759 14.653 13.7563 12.6258 13.7563 10.1125C13.7563 7.59926 11.759 5.57205 9.28292 5.57205ZM9.28292 13.0644C7.68279 13.0644 6.37465 11.7406 6.37465 10.1125C6.37465 8.48444 7.67889 7.16062 9.28292 7.16062C10.887 7.16062 12.1912 8.48444 12.1912 10.1125C12.1912 11.7406 10.8831 13.0644 9.28292 13.0644ZM14.9827 5.38632C14.9827 5.97512 14.5155 6.44537 13.9393 6.44537C13.3592 6.44537 12.8959 5.97117 12.8959 5.38632C12.8959 4.80148 13.3631 4.32727 13.9393 4.32727C14.5155 4.32727 14.9827 4.80148 14.9827 5.38632ZM17.9455 6.46118C17.8793 5.04253 17.56 3.7859 16.5361 2.75056C15.5161 1.71522 14.278 1.39118 12.8803 1.32005C11.4398 1.23707 7.12216 1.23707 5.68164 1.32005C4.28785 1.38723 3.04979 1.71127 2.02586 2.74661C1.00193 3.78194 0.686574 5.03858 0.616495 6.45723C0.534736 7.91935 0.534736 12.3018 0.616495 13.7639C0.682681 15.1825 1.00193 16.4392 2.02586 17.4745C3.04979 18.5098 4.28396 18.8339 5.68164 18.905C7.12216 18.988 11.4398 18.988 12.8803 18.905C14.278 18.8378 15.5161 18.5138 16.5361 17.4745C17.5561 16.4392 17.8754 15.1825 17.9455 13.7639C18.0272 12.3018 18.0272 7.9233 17.9455 6.46118ZM16.0845 15.3327C15.7808 16.1072 15.1929 16.7039 14.4259 17.0161C13.2774 17.4784 10.5521 17.3717 9.28292 17.3717C8.01372 17.3717 5.28453 17.4745 4.13991 17.0161C3.37683 16.7079 2.78894 16.1112 2.48137 15.3327C2.02586 14.1669 2.13098 11.4008 2.13098 10.1125C2.13098 8.82428 2.02975 6.05416 2.48137 4.89236C2.78505 4.11784 3.37293 3.52113 4.13991 3.20895C5.28842 2.74661 8.01372 2.8533 9.28292 2.8533C10.5521 2.8533 13.2813 2.75056 14.4259 3.20895C15.189 3.51718 15.7769 4.11388 16.0845 4.89236C16.54 6.05811 16.4349 8.82428 16.4349 10.1125C16.4349 11.4008 16.54 14.1709 16.0845 15.3327Z" fill="#575757"/>
</g>
<defs>
<clipPath id="clip0_54_143">
<rect width="17.4419" height="20.2326" fill="white" transform="translate(0.558105)"/>
</clipPath>
</defs>
</svg>
