<svg width="23" height="24" viewBox="0 0 23 24" fill="none" xmlns="http://www.w3.org/2000/svg">
<path d="M7.67433 12.4599L15.5159 19.3605C15.6067 19.4404 15.7166 19.4953 15.8349 19.5198C15.9532 19.5445 16.0759 19.5378 16.191 19.5008C16.306 19.4637 16.4094 19.3973 16.4911 19.3082C16.5728 19.2192 16.6299 19.1104 16.6569 18.9926L19.9371 4.67871C19.9655 4.55495 19.9595 4.42581 19.9199 4.30518C19.8804 4.18455 19.8086 4.07702 19.7124 3.99418C19.6162 3.91133 19.4992 3.85632 19.3739 3.83505C19.2488 3.81379 19.1202 3.82708 19.002 3.87351L2.90693 10.1966C2.76665 10.2517 2.648 10.3507 2.56871 10.4789C2.48942 10.607 2.45377 10.7575 2.46708 10.9076C2.4804 11.0577 2.54197 11.1995 2.64258 11.3117C2.74319 11.4239 2.87742 11.5005 3.0252 11.5301L7.67433 12.4599Z" stroke="#575757" stroke-linecap="round" stroke-linejoin="round"/>
<path d="M7.67432 12.4597L19.5446 3.88672" stroke="#575757" stroke-linecap="round" stroke-linejoin="round"/>
<path d="M11.5906 15.9063L8.86532 18.6317C8.76778 18.7292 8.64346 18.7957 8.50811 18.8226C8.37276 18.8495 8.23246 18.8357 8.10499 18.7829C7.97753 18.7301 7.86855 18.6407 7.79187 18.5259C7.71527 18.4112 7.67432 18.2763 7.67432 18.1383V12.46" stroke="#575757" stroke-linecap="round" stroke-linejoin="round"/>
</svg>
