<svg width="18" height="18" viewBox="0 0 18 18" fill="none" xmlns="http://www.w3.org/2000/svg">
<g clip-path="url(#clip0_54_98)">
<path d="M16.875 12.9751H12.1816L10.5908 14.5659C10.1672 14.9896 9.60117 15.2251 9 15.2251C8.39883 15.2251 7.83422 14.9911 7.40918 14.5659L5.81836 12.9751H1.125C0.503789 12.9751 0 13.4789 0 14.1001V17.4751C0 18.0963 0.503789 18.6001 1.125 18.6001H16.875C17.4962 18.6001 18 18.0963 18 17.4751V14.1001C18 13.4778 17.4973 12.9751 16.875 12.9751ZM15.1875 16.6313C14.7234 16.6313 14.3438 16.2517 14.3438 15.7876C14.3438 15.3235 14.7234 14.9438 15.1875 14.9438C15.6516 14.9438 16.0312 15.3235 16.0312 15.7876C16.0312 16.2517 15.6516 16.6313 15.1875 16.6313ZM8.20547 13.7696C8.42344 13.9911 8.71172 14.1001 9 14.1001C9.28828 14.1001 9.57586 13.9902 9.79523 13.7705L14.2952 9.27051C14.7343 8.83105 14.7343 8.11914 14.2952 7.67969C13.8558 7.24023 13.1435 7.24023 12.7044 7.67969L10.125 10.261V1.7251C10.125 1.10389 9.62121 0.600098 9 0.600098C8.37773 0.600098 7.875 1.10389 7.875 1.7251V10.261L5.29453 7.68057C4.85543 7.24111 4.14316 7.24111 3.70371 7.68057C3.26461 8.12002 3.26461 8.83193 3.70371 9.27139L8.20547 13.7696Z" fill="#767676"/>
</g>
<defs>
<clipPath id="clip0_54_98">
<rect width="18" height="18" fill="white"/>
</clipPath>
</defs>
</svg>
