<svg width="258" height="195" viewBox="0 0 258 195" fill="none" xmlns="http://www.w3.org/2000/svg">
<path d="M138 8C138 3.58172 134.418 -1.93129e-07 130 0C125.582 1.93129e-07 122 3.58172 122 8L138 8ZM124.343 149.657C127.467 152.781 132.533 152.781 135.657 149.657L186.569 98.7452C189.693 95.621 189.693 90.5556 186.569 87.4315C183.444 84.3073 178.379 84.3073 175.255 87.4315L130 132.686L84.7452 87.4315C81.621 84.3073 76.5557 84.3073 73.4315 87.4315C70.3073 90.5557 70.3073 95.621 73.4315 98.7452L124.343 149.657ZM122 8L122 144L138 144L138 8L122 8Z" fill="black"/>
<path d="M176.5 128C188.309 129.143 206.473 131.495 220.187 135.762C237.33 141.095 246.091 146.428 249.139 149.857C252.187 153.285 253.329 157.857 249.901 162.428C246.472 166.999 233.52 173.475 226.282 176.142C219.044 178.809 198.473 182.999 181.331 184.904C164.188 186.809 131.427 188.332 127.998 187.951" stroke="black" stroke-width="12" stroke-linecap="round"/>
<path d="M81.5 128C69.6907 129.143 51.527 131.495 37.8129 135.762C20.6703 141.095 11.9086 146.428 8.86098 149.857C5.81341 153.285 4.67057 157.857 8.09909 162.428C11.5276 166.999 24.4798 173.475 31.7178 176.142C38.9557 178.809 59.5268 182.999 76.6694 184.904C93.812 186.809 126.573 188.332 130.002 187.951" stroke="black" stroke-width="12" stroke-linecap="round"/>
</svg>
