<svg width="24" height="24" viewBox="0 0 24 24" fill="none" xmlns="http://www.w3.org/2000/svg">
<path d="M8.49342 11.3147C9.21712 12.7943 10.4164 13.9881 11.8993 14.705C12.0078 14.7565 12.1278 14.7787 12.2475 14.7696C12.3671 14.7606 12.4824 14.7205 12.5819 14.6534L14.7653 13.1975C14.8619 13.1331 14.9729 13.0938 15.0885 13.0832C15.2041 13.0726 15.3205 13.091 15.4272 13.1367L19.5118 14.8872C19.6506 14.9462 19.7665 15.0486 19.8419 15.1791C19.9174 15.3096 19.9484 15.4611 19.9303 15.6108C19.8012 16.621 19.3083 17.5495 18.5438 18.2225C17.7794 18.8956 16.7959 19.2668 15.7774 19.2669C12.6319 19.2669 9.61515 18.0173 7.39082 15.793C5.16658 13.5687 3.91699 10.552 3.91699 7.40639C3.91705 6.38794 4.28832 5.40443 4.96131 4.64001C5.63429 3.87559 6.56283 3.38267 7.57305 3.25357C7.7227 3.23546 7.87424 3.26647 8.0047 3.34195C8.13524 3.41742 8.23766 3.53326 8.29661 3.67202L10.0487 7.76018C10.094 7.86595 10.1124 7.98127 10.1025 8.0959C10.0924 8.21046 10.0542 8.32083 9.99119 8.41711L8.54038 10.6339C8.47431 10.7337 8.43531 10.8488 8.42708 10.9681C8.41884 11.0875 8.44166 11.2068 8.49342 11.3147Z" stroke="#575757" stroke-linecap="round" stroke-linejoin="round"/>
</svg>
